# xmcd
#
# Track frame offsets: 
#        150
#        10050
#        11287
#        16162
#        23137
#        23847
#        30412
#        41137
#        50850
#        63937
#        79575
#        81300
#        87750
#        95850
#        96675
#        106752
#        114150
#        132916
#
# Disc length: 2163 seconds
#
# Revision: 5
# Processed by: cddbd v1.5.1PL2 Copyright (c) Steve Scherf et al.
# Submitted via: ExactAudioCopy v0.95b4
#
DISCID=d5087112
DTITLE=Jimmy Buffett - Rancho Deluxe Soundtrack (OST) [Deluxe Edition]
DYEAR=1974
DGENRE=Soundtrack
TTITLE0=Rancho Deluxe - Main Title
TTITLE1=X-Mas Bonus
TTITLE2=Ridin' In Style
TTITLE3=Left Me With a Nail To Drive
TTITLE4=Rustler's That's Us
TTITLE5=Cattle Truckin'
TTITLE6=Countin' The Cows Ev'ry Day
TTITLE7=The Wrangler
TTITLE8=Rancho Deluxe - End Title
TTITLE9=Livingston Saturday Night
TTITLE10=Dork
TTITLE11=Some Gothic Ranch Action
TTITLE12=Wonder Why You Ever Go Home
TTITLE13=Hood Ornament
TTITLE14=Fifteen Gears
TTITLE15=Can't Remember When I Slept Last
TTITLE16=Rancho Deluxe
TTITLE17=(data track)
EXTD=
EXTT0=
EXTT1=
EXTT2=
EXTT3=
EXTT4=
EXTT5=
EXTT6=
EXTT7=
EXTT8=
EXTT9=
EXTT10=
EXTT11=
EXTT12=
EXTT13=
EXTT14=
EXTT15=
EXTT16=
EXTT17=
PLAYORDER=
